<svg width="18" height="18" viewBox="0 0 18 18" xmlns="http://www.w3.org/2000/svg">
<path d="M7.125 6H1.125C0.50475 6 0 5.49525 0 4.875V1.125C0 0.50475 0.50475 0 1.125 0H7.125C7.74525 0 8.25 0.50475 8.25 1.125V4.875C8.25 5.49525 7.74525 6 7.125 6ZM1.125 0.75C0.91875 0.75 0.75 0.918 0.75 1.125V4.875C0.75 5.082 0.91875 5.25 1.125 5.25H7.125C7.33125 5.25 7.5 5.082 7.5 4.875V1.125C7.5 0.918 7.33125 0.75 7.125 0.75H1.125Z"></path>
<path d="M7.125 17.9998H1.125C0.50475 17.9998 0 17.495 0 16.8748V8.62476C0 8.00451 0.50475 7.49976 1.125 7.49976H7.125C7.74525 7.49976 8.25 8.00451 8.25 8.62476V16.8748C8.25 17.495 7.74525 17.9998 7.125 17.9998ZM1.125 8.24976C0.91875 8.24976 0.75 8.41776 0.75 8.62476V16.8748C0.75 17.0818 0.91875 17.2498 1.125 17.2498H7.125C7.33125 17.2498 7.5 17.0818 7.5 16.8748V8.62476C7.5 8.41776 7.33125 8.24976 7.125 8.24976H1.125Z"></path>
<path d="M16.8755 17.9998H10.8755C10.2552 17.9998 9.75049 17.495 9.75049 16.8748V13.1248C9.75049 12.5045 10.2552 11.9998 10.8755 11.9998H16.8755C17.4957 11.9998 18.0005 12.5045 18.0005 13.1248V16.8748C18.0005 17.495 17.4957 17.9998 16.8755 17.9998ZM10.8755 12.7498C10.6692 12.7498 10.5005 12.9178 10.5005 13.1248V16.8748C10.5005 17.0818 10.6692 17.2498 10.8755 17.2498H16.8755C17.0817 17.2498 17.2505 17.0818 17.2505 16.8748V13.1248C17.2505 12.9178 17.0817 12.7498 16.8755 12.7498H10.8755Z"></path>
<path d="M16.8755 10.5H10.8755C10.2552 10.5 9.75049 9.99525 9.75049 9.375V1.125C9.75049 0.50475 10.2552 0 10.8755 0H16.8755C17.4957 0 18.0005 0.50475 18.0005 1.125V9.375C18.0005 9.99525 17.4957 10.5 16.8755 10.5ZM10.8755 0.75C10.6692 0.75 10.5005 0.918 10.5005 1.125V9.375C10.5005 9.582 10.6692 9.75 10.8755 9.75H16.8755C17.0817 9.75 17.2505 9.582 17.2505 9.375V1.125C17.2505 0.918 17.0817 0.75 16.8755 0.75H10.8755Z"></path>
</svg>