<svg width="18" height="18" viewBox="0 0 18 18" xmlns="http://www.w3.org/2000/svg">
<path d="M12.5998 12.3312C12.6886 12.3312 12.7773 12.2972 12.845 12.2297L15.8352 9.24479C15.9708 9.10944 15.9708 8.89067 15.8352 8.75532C15.6996 8.61997 15.4805 8.61997 15.3449 8.75532L12.3546 11.7403C12.219 11.8756 12.219 12.0944 12.3546 12.2297C12.4222 12.2972 12.511 12.3312 12.5998 12.3312Z"></path>
<path d="M4.90684 14.234C5.0986 14.234 5.25361 14.0789 5.25361 13.8878V4.11227C5.25361 3.92119 5.0986 3.76611 4.90684 3.76611C4.71507 3.76611 4.56006 3.92119 4.56006 4.11227V13.8878C4.56006 14.0789 4.71541 14.234 4.90684 14.234Z"></path>
<path d="M15.3449 9.24487C15.4125 9.31237 15.5013 9.34629 15.5901 9.34629C15.6788 9.34629 15.7676 9.31237 15.8352 9.24487C15.9708 9.10952 15.9708 8.89075 15.8352 8.7554L12.845 5.77046C12.7094 5.63511 12.4902 5.63511 12.3546 5.77046C12.219 5.90581 12.219 6.12458 12.3546 6.25993L15.3449 9.24487Z"></path>
<path d="M5.3521 14.6783C5.54387 14.6783 5.69888 14.5232 5.69888 14.3321C5.69888 14.1411 5.54387 13.986 5.3521 13.986C5.298 13.986 5.25361 13.942 5.25361 13.8877C5.25361 13.6966 5.0986 13.5415 4.90684 13.5415C4.71507 13.5415 4.56006 13.6966 4.56006 13.8877C4.55971 14.3238 4.91516 14.6783 5.3521 14.6783Z"></path>
<path d="M4.90684 4.45857C5.0986 4.45857 5.25361 4.30349 5.25361 4.11241C5.25361 4.05841 5.298 4.0141 5.3521 4.0141C5.54387 4.0141 5.69887 3.85902 5.69887 3.66794C5.69887 3.47686 5.54387 3.32178 5.3521 3.32178C4.91516 3.32178 4.56006 3.67625 4.56006 4.11241C4.56006 4.30383 4.71541 4.45857 4.90684 4.45857Z"></path>
<path d="M1.07876 4.70121C-0.476885 7.54976 -0.340602 11.1554 1.42658 13.8866C2.73635 15.9113 4.84684 17.3461 7.21672 17.8231C7.80658 17.9418 8.402 18 8.99499 18C10.9213 18 12.8179 17.3842 14.3853 16.2194C14.5386 16.1051 14.5705 15.8881 14.456 15.7351C14.3419 15.5821 14.1252 15.5502 13.9709 15.6641C12.0792 17.0702 9.66774 17.6099 7.35369 17.1443C5.16622 16.7043 3.21803 15.3799 2.00916 13.511C0.378268 10.9899 0.252041 7.66192 1.6877 5.03248C3.13168 2.38851 5.99988 0.691629 9.01198 0.691629C9.03834 0.691629 9.06504 0.691629 9.09174 0.691975C12.1704 0.722783 15.0528 2.51659 16.4351 5.26199C17.7924 7.95788 17.5503 11.2956 15.8185 13.7647C15.7089 13.9215 15.7467 14.1372 15.9038 14.2469C16.0599 14.3563 16.277 14.3186 16.3869 14.1618C18.263 11.4866 18.5251 7.87134 17.0551 4.95079C15.5584 1.979 12.4392 0.0363469 9.10631 0H8.99326C5.73771 0.00726937 2.6396 1.8433 1.07876 4.70121Z"></path>
<path d="M15.9368 9.00021C15.9368 8.80913 15.7817 8.65405 15.59 8.65405H7.13242C6.94065 8.65405 6.78564 8.80913 6.78564 9.00021C6.78564 9.19129 6.94065 9.34637 7.13242 9.34637H15.59C15.7817 9.34637 15.9368 9.19129 15.9368 9.00021Z"></path>
<path d="M8.46794 13.9858H5.35215C5.16038 13.9858 5.00537 14.1409 5.00537 14.332C5.00537 14.5231 5.16038 14.6782 5.35215 14.6782H8.46794C8.65971 14.6782 8.81472 14.5231 8.81472 14.332C8.81472 14.1409 8.65971 13.9858 8.46794 13.9858Z"></path>
<path d="M5.35215 4.01434H8.46794C8.65971 4.01434 8.81472 3.85926 8.81472 3.66818C8.81472 3.4771 8.65971 3.32202 8.46794 3.32202H5.35215C5.16038 3.32202 5.00537 3.4771 5.00537 3.66818C5.00537 3.85926 5.16038 4.01434 5.35215 4.01434Z"></path>
<path d="M14.9721 14.7846C14.9097 14.8504 14.8716 14.9404 14.8716 15.0304C14.8716 15.1204 14.9097 15.2104 14.9756 15.2727C15.0384 15.3385 15.1282 15.3766 15.2184 15.3766C15.3123 15.3766 15.4022 15.3385 15.4646 15.2762C15.5305 15.2104 15.5651 15.1204 15.5651 15.0304C15.5651 14.9369 15.5305 14.8504 15.4646 14.7846C15.3363 14.6565 15.107 14.6531 14.9721 14.7846Z"></path>
</svg>