<svg width="18" height="18" viewBox="0 0 18 18" xmlns="http://www.w3.org/2000/svg">
<path d="M11.1 10.5H10.77C10.6459 10.5002 10.5348 10.4228 10.4922 10.3062C10.4556 10.2102 10.4163 10.1163 10.374 10.0233C10.3214 9.9102 10.3454 9.77629 10.434 9.6885L10.6692 9.453C11.0184 9.10076 11.0177 8.53271 10.6677 8.1813L9.8199 7.3335C9.46804 6.9837 8.89976 6.9837 8.5479 7.3335L8.3127 7.5684C8.22472 7.65664 8.09104 7.6806 7.9779 7.6284C7.8849 7.5861 7.791 7.5468 7.6947 7.5084C7.57751 7.46606 7.49955 7.35461 7.5 7.23V6.9C7.5 6.40294 7.09706 6 6.6 6H5.4C4.90294 6 4.5 6.40294 4.5 6.9V7.23C4.50023 7.35413 4.42279 7.46516 4.3062 7.5078C4.2102 7.5444 4.1163 7.5837 4.0233 7.626C3.91016 7.67831 3.77644 7.65435 3.6885 7.566L3.453 7.3308C3.10118 6.98123 2.53313 6.98123 2.1813 7.3308L1.3335 8.1813C0.9837 8.53316 0.9837 9.10144 1.3335 9.4533L1.5684 9.6885C1.65698 9.77629 1.68098 9.9102 1.6284 10.0233C1.5861 10.1163 1.5468 10.2102 1.5099 10.3065C1.46696 10.4238 1.35487 10.5013 1.23 10.5H0.9C0.402938 10.5 0 10.9029 0 11.4V12.6C0 13.0971 0.402938 13.5 0.9 13.5H1.23C1.35413 13.4998 1.46516 13.5772 1.5078 13.6938C1.5444 13.7898 1.5837 13.8837 1.626 13.9767C1.67858 14.0898 1.65457 14.2237 1.566 14.3115L1.3308 14.547C0.981225 14.8988 0.981225 15.4669 1.3308 15.8187L2.1786 16.6665C2.53046 17.0163 3.09874 17.0163 3.4506 16.6665L3.6858 16.4316C3.77378 16.3434 3.90746 16.3194 4.0206 16.3716C4.1136 16.4139 4.2075 16.4532 4.3038 16.4916C4.42159 16.5335 4.50023 16.645 4.5 16.77V17.1C4.5 17.5971 4.90294 18 5.4 18H6.6C7.09706 18 7.5 17.5971 7.5 17.1V16.77C7.49978 16.6459 7.57721 16.5348 7.6938 16.4922C7.7898 16.4556 7.8837 16.4163 7.9767 16.374C8.08984 16.3217 8.22356 16.3456 8.3115 16.434L8.547 16.6692C8.89931 17.0182 9.46721 17.0175 9.8187 16.6677L10.6665 15.8199C11.0163 15.468 11.0163 14.8998 10.6665 14.5479L10.4316 14.3127C10.343 14.2249 10.319 14.091 10.3716 13.9779C10.4139 13.8849 10.4532 13.791 10.4916 13.6947C10.5339 13.5775 10.6454 13.4996 10.77 13.5H11.1C11.5971 13.5 12 13.0971 12 12.6V11.4C12 10.9029 11.5971 10.5 11.1 10.5ZM11.4 12.6C11.4 12.7657 11.2657 12.9 11.1 12.9H10.77C10.3971 12.9014 10.0633 13.1319 9.93 13.4802C9.8982 13.5642 9.86381 13.6469 9.8268 13.7283C9.67256 14.0688 9.74411 14.4692 10.0068 14.7351L10.2414 14.97C10.3586 15.0871 10.3587 15.2771 10.2416 15.3943C10.2415 15.3944 10.2415 15.3944 10.2414 15.3945L9.3936 16.2423C9.27645 16.3594 9.08655 16.3594 8.9694 16.2423L8.7342 16.0074C8.46836 15.7445 8.06786 15.6729 7.7274 15.8274C7.6461 15.8643 7.5633 15.8988 7.4799 15.9306C7.13186 16.0639 6.9015 16.3973 6.9 16.77V17.1C6.9 17.2657 6.76568 17.4 6.6 17.4H5.4C5.23433 17.4 5.1 17.2657 5.1 17.1V16.77C5.09861 16.3971 4.8681 16.0633 4.5198 15.93C4.4358 15.8982 4.35311 15.8638 4.2717 15.8268C3.9312 15.6726 3.53089 15.7442 3.2649 16.0068L3.03 16.2414C2.91293 16.3586 2.72295 16.3587 2.60573 16.2416C2.60565 16.2415 2.60558 16.2415 2.6055 16.2414L1.7577 15.3945C1.64059 15.2774 1.64059 15.0875 1.7577 14.9703L1.9926 14.7351C2.25529 14.4692 2.32684 14.0688 2.1726 13.7283C2.1357 13.647 2.1012 13.5642 2.0694 13.4808C1.93642 13.1324 1.6029 12.9017 1.23 12.9H0.9C0.734325 12.9 0.6 12.7657 0.6 12.6V11.4C0.6 11.2343 0.734325 11.1 0.9 11.1H1.23C1.60294 11.0986 1.93669 10.8681 2.07 10.5198C2.1018 10.4358 2.13619 10.3531 2.1732 10.2717C2.32744 9.9312 2.25585 9.53085 1.9932 9.2649L1.7574 9.03C1.64017 8.91293 1.64006 8.72295 1.75718 8.60572C1.75725 8.60565 1.75733 8.60557 1.7574 8.6055L2.6052 7.7577C2.72235 7.64059 2.91225 7.64059 3.0294 7.7577L3.2646 7.9926C3.53044 8.25551 3.93094 8.3271 4.2714 8.1726C4.3527 8.1357 4.4355 8.1012 4.5189 8.0694C4.86742 7.93654 5.09831 7.60298 5.1 7.23V6.9C5.1 6.73432 5.23433 6.6 5.4 6.6H6.6C6.76568 6.6 6.9 6.73432 6.9 6.9V7.23C6.90139 7.60294 7.1319 7.93669 7.4802 8.07C7.5642 8.1018 7.64689 8.13619 7.7283 8.1732C8.06876 8.3277 8.46926 8.25611 8.7351 7.9932L8.97 7.7586C9.0876 7.64227 9.2769 7.64227 9.3945 7.7586L10.2423 8.6064C10.3594 8.72355 10.3594 8.91345 10.2423 9.0306L10.0074 9.2658C9.74475 9.53175 9.67316 9.9321 9.8274 10.2726C9.8643 10.3539 9.8988 10.4367 9.9306 10.5201C10.0639 10.8681 10.3973 11.0985 10.77 11.1H11.1C11.2657 11.1 11.4 11.2343 11.4 11.4V12.6Z"></path>
<path d="M8.6939 11.88C8.6909 11.808 8.6858 11.7363 8.6771 11.6649C8.6675 11.5881 8.6561 11.5119 8.6402 11.4372C8.6297 11.3883 8.6159 11.34 8.6027 11.2914C8.5859 11.2296 8.567 11.1687 8.546 11.1087C8.5313 11.067 8.516 11.0256 8.5004 10.9845C8.46177 10.8885 8.4176 10.7947 8.3681 10.7037C8.3642 10.6968 8.3618 10.6893 8.3579 10.6824C8.27986 10.5435 8.18948 10.4119 8.0879 10.2891C8.0792 10.2783 8.0693 10.2681 8.0603 10.2576C8.0189 10.2087 7.9763 10.1613 7.9316 10.116C7.9082 10.0917 7.8836 10.0689 7.859 10.0455C7.829 10.0176 7.799 9.99005 7.769 9.96365C7.73258 9.93204 7.6955 9.90144 7.6577 9.87185L7.6085 9.83525C7.14428 9.48755 6.57987 9.29975 5.9999 9.30005C5.9699 9.30005 5.9399 9.30455 5.9099 9.30575C5.846 9.30755 5.7818 9.31115 5.7173 9.31775C5.6834 9.32135 5.6492 9.32525 5.6153 9.33005C5.5175 9.34291 5.42045 9.36106 5.3246 9.38435C3.88006 9.75762 3.01163 11.2313 3.38491 12.6758C3.63091 13.6277 4.37461 14.3708 5.3267 14.616C5.3315 14.616 5.3366 14.6175 5.3417 14.6187C5.44531 14.6446 5.55027 14.6646 5.6561 14.6788C5.726 14.6874 5.7959 14.6892 5.8661 14.6925C5.9129 14.6949 5.9561 14.7018 6.005 14.7018C6.0905 14.7018 6.1793 14.6961 6.2699 14.6872C6.2795 14.6872 6.2891 14.6844 6.2999 14.6832C6.3728 14.6751 6.4466 14.6644 6.5219 14.6494C6.5519 14.6437 6.5798 14.6361 6.6086 14.6295C6.6614 14.6172 6.7139 14.6043 6.7679 14.5884C6.8099 14.5758 6.8507 14.5611 6.8918 14.5467C6.9329 14.5323 6.9755 14.5167 7.0181 14.5005C7.0607 14.4843 7.0964 14.4657 7.1351 14.4477C7.1855 14.4246 7.2356 14.4018 7.2851 14.3748H7.2869C7.56687 14.225 7.82547 14.0382 8.0558 13.8195C8.11801 13.7615 8.17212 13.6953 8.2166 13.6227C8.45075 13.2474 8.60457 12.8276 8.6684 12.3897C8.6768 12.3318 8.6843 12.2739 8.6888 12.2148C8.693 12.1605 8.696 12.1065 8.6972 12.0525C8.6972 12.0354 8.6996 12.0192 8.6996 12.0021C8.6999 11.9598 8.6957 11.9208 8.6939 11.88ZM8.096 12.0765C8.096 12.1014 8.0939 12.1263 8.0924 12.1509C8.087 12.2235 8.0777 12.2961 8.0654 12.369C7.95327 12.9928 7.56601 13.5328 7.0112 13.839C6.974 13.8585 6.9374 13.8768 6.9008 13.8936L6.8759 13.9056C6.7016 13.9848 6.51762 14.0405 6.3287 14.0712C6.3155 14.0733 6.302 14.0757 6.2885 14.0775C6.251 14.0829 6.2141 14.0875 6.1775 14.0907C6.1292 14.0949 6.0806 14.0973 6.0311 14.0982C6.0101 14.0982 5.9894 14.0982 5.9684 14.0982C5.89741 14.0974 5.82653 14.093 5.756 14.085L5.72 14.0808C5.6375 14.07 5.55567 14.0546 5.4749 14.0346C4.35132 13.7471 3.67362 12.6031 3.96117 11.4795C4.15118 10.7371 4.73056 10.1571 5.4728 9.96635V9.96605C5.64515 9.92259 5.82215 9.90039 5.9999 9.90005C6.08566 9.90054 6.17135 9.90635 6.2564 9.91745C6.2792 9.92015 6.3017 9.92435 6.3242 9.92765C6.389 9.93785 6.4532 9.95075 6.5165 9.96695C6.5372 9.97235 6.5579 9.97715 6.5783 9.98285C6.73782 10.0289 6.89138 10.0935 7.0358 10.1754C7.0589 10.1889 7.0814 10.203 7.1042 10.2171C7.1516 10.2471 7.1975 10.2771 7.2428 10.3113C7.2671 10.329 7.2917 10.3464 7.3151 10.3653C7.37397 10.4124 7.43033 10.4624 7.484 10.5153C7.5053 10.5369 7.5248 10.5606 7.5455 10.5831C7.58 10.6206 7.6136 10.659 7.6457 10.6995C7.6679 10.7274 7.6892 10.7562 7.7102 10.7853C7.7402 10.8285 7.7702 10.8735 7.7972 10.9191C7.8122 10.944 7.8272 10.9683 7.8425 10.9938C7.8812 11.0651 7.91566 11.1385 7.9457 11.2137C7.9577 11.2437 7.9679 11.2737 7.9787 11.3037C7.9982 11.3589 8.015 11.4147 8.0297 11.4711C8.0372 11.5011 8.0456 11.5278 8.0519 11.5569C8.06941 11.638 8.08212 11.7201 8.09 11.8026C8.0918 11.8245 8.0918 11.8467 8.0933 11.8686C8.0975 11.9376 8.0987 12.0069 8.096 12.0765Z"></path>
<path d="M17.1002 6.3H16.1567C16.0309 6.30128 15.9183 6.22204 15.8771 6.1032C15.784 5.82454 15.6715 5.55274 15.5402 5.2899C15.4844 5.17639 15.5077 5.03993 15.5978 4.9512L16.2668 4.2813C16.6179 3.92989 16.6179 3.36041 16.2668 3.009L14.9912 1.7355C14.6398 1.38435 14.0703 1.38435 13.7189 1.7355L13.0502 2.4039C12.9616 2.49397 12.8253 2.5173 12.7118 2.4618C12.4489 2.32984 12.177 2.21666 11.8982 2.1231C11.7788 2.08226 11.699 1.96961 11.7002 1.8435V0.9C11.7002 0.402938 11.2972 0 10.8002 0H9.00016C8.5031 0 8.10016 0.402938 8.10016 0.9V1.8435C8.10144 1.96931 8.02224 2.08185 7.90336 2.1231C7.62466 2.21663 7.35286 2.32973 7.09006 2.4615C6.97655 2.51741 6.84001 2.4942 6.75136 2.4039L6.08146 1.7349C5.72964 1.38476 5.16099 1.38476 4.80916 1.7349L3.53596 3.0081C3.18463 3.35955 3.18463 3.92925 3.53596 4.2807L4.51966 5.2662C4.63865 5.38148 4.82859 5.37848 4.94386 5.25945C5.05633 5.14335 5.05659 4.959 4.94446 4.8426L3.96016 3.8574C3.84305 3.74025 3.84305 3.55035 3.96016 3.4332L5.23336 2.16C5.35051 2.04289 5.54041 2.04289 5.65756 2.16L6.32776 2.829C6.59893 3.10178 7.01443 3.16995 7.35856 2.9982C7.5962 2.87921 7.8419 2.77706 8.09386 2.6925C8.45754 2.56939 8.70174 2.22746 8.70016 1.8435V0.9C8.70016 0.734325 8.83449 0.6 9.00016 0.6H10.8002C10.9658 0.6 11.1002 0.734325 11.1002 0.9V1.8435C11.0986 2.22739 11.3428 2.5692 11.7065 2.6922C11.9585 2.7768 12.2044 2.87903 12.4421 2.9982C12.7863 3.16905 13.2012 3.1008 13.4726 2.8287L14.1428 2.16C14.2599 2.04289 14.4498 2.04289 14.567 2.16L15.8402 3.4335C15.9571 3.55061 15.9571 3.74029 15.8402 3.8574L15.1712 4.5276C14.8987 4.79891 14.8305 5.21423 15.002 5.5584C15.121 5.79604 15.2231 6.04174 15.3077 6.2937C15.4307 6.65745 15.7727 6.90165 16.1567 6.9H17.1002C17.2658 6.9 17.4002 7.03433 17.4002 7.2V9C17.4002 9.16568 17.2658 9.3 17.1002 9.3H16.1567C15.7728 9.29846 15.431 9.54266 15.308 9.9063C15.2234 10.1584 15.1211 10.4042 15.002 10.6419C14.8308 10.9861 14.8991 11.4012 15.1715 11.6724L15.8405 12.3426C15.9576 12.4598 15.9576 12.6497 15.8405 12.7668L14.5667 14.04C14.4496 14.1569 14.2599 14.1569 14.1428 14.04L13.157 13.0563C13.0417 12.9373 12.8518 12.9343 12.7328 13.0496C12.6137 13.1648 12.6107 13.3548 12.726 13.4738C12.7284 13.4762 12.7309 13.4787 12.7334 13.4811L13.7189 14.4648C14.0703 14.816 14.6398 14.816 14.9912 14.4648L16.2644 13.1919C16.6157 12.8405 16.6157 12.2708 16.2644 11.9193L15.5963 11.25C15.5063 11.1614 15.483 11.0251 15.5384 10.9116C15.6703 10.6487 15.7835 10.3769 15.8771 10.098C15.9179 9.97867 16.0306 9.89888 16.1567 9.9H17.1002C17.5972 9.9 18.0002 9.49706 18.0002 9V7.2C18.0002 6.70294 17.5972 6.3 17.1002 6.3Z"></path>
<path d="M12.6575 5.34246C11.1336 3.82172 8.66623 3.82172 7.14231 5.34246C7.02722 5.46163 7.03052 5.65157 7.14969 5.76666C7.26594 5.87893 7.45026 5.87893 7.56651 5.76666C8.84657 4.46931 10.936 4.45532 12.2333 5.73538C13.5307 7.01544 13.5446 9.10483 12.2646 10.4022C12.2542 10.4127 12.2438 10.4231 12.2333 10.4335C12.1141 10.5486 12.1108 10.7385 12.226 10.8577C12.3411 10.9768 12.531 10.9801 12.6502 10.865C12.6526 10.8626 12.6551 10.8601 12.6575 10.8577C14.1782 9.33373 14.1782 6.86638 12.6575 5.34246Z"></path>
</svg>