<svg xmlns="http://www.w3.org/2000/svg" width="12" height="10" viewBox="0 0 12 10">
  <path id="person-3" d="M11.25,10A.763.763,0,0,0,12,9.167,3.551,3.551,0,0,0,8.25,5.833,3.551,3.551,0,0,0,4.5,9.167.763.763,0,0,0,5.25,10ZM5.266,9.167l-.016,0A2.715,2.715,0,0,1,5.82,7.73,2.868,2.868,0,0,1,8.25,6.667,2.872,2.872,0,0,1,10.68,7.73a2.724,2.724,0,0,1,.57,1.433l-.006,0-.011,0Zm2.984-5a1.428,1.428,0,0,0,1.061-.488A1.765,1.765,0,0,0,9.75,2.5a1.765,1.765,0,0,0-.439-1.179,1.4,1.4,0,0,0-2.121,0A1.765,1.765,0,0,0,6.75,2.5a1.765,1.765,0,0,0,.439,1.179A1.428,1.428,0,0,0,8.25,4.167ZM10.5,2.5a2.742,2.742,0,0,1-.171.957,2.534,2.534,0,0,1-.488.811,2.25,2.25,0,0,1-.73.542,2.043,2.043,0,0,1-1.722,0,2.25,2.25,0,0,1-.73-.542,2.535,2.535,0,0,1-.488-.811A2.743,2.743,0,0,1,6,2.5,2.648,2.648,0,0,1,6.659.732a2.095,2.095,0,0,1,3.182,0A2.648,2.648,0,0,1,10.5,2.5ZM5.2,6.067a4.025,4.025,0,0,0-.923-.206,4.968,4.968,0,0,0-.53-.027A3.551,3.551,0,0,0,0,9.167Q0,10,.75,10H3.912a2.041,2.041,0,0,1-.162-.833,4.084,4.084,0,0,1,.818-2.42A4.2,4.2,0,0,1,5.2,6.067Zm-1.512.6A4.945,4.945,0,0,0,3,9.167H.75A2.715,2.715,0,0,1,1.32,7.73,2.852,2.852,0,0,1,3.69,6.668ZM1.125,2.917a2.648,2.648,0,0,1,.659-1.768A2.142,2.142,0,0,1,3.375.417a2.142,2.142,0,0,1,1.591.732,2.648,2.648,0,0,1,.659,1.768,2.648,2.648,0,0,1-.659,1.768,2.142,2.142,0,0,1-1.591.732,2.142,2.142,0,0,1-1.591-.732A2.648,2.648,0,0,1,1.125,2.917ZM3.375,1.25a1.428,1.428,0,0,0-1.061.488,1.8,1.8,0,0,0,0,2.357,1.4,1.4,0,0,0,2.121,0,1.8,1.8,0,0,0,0-2.357A1.428,1.428,0,0,0,3.375,1.25Z" fill="#fff"/>
</svg>
